# AST/ASF file generated using VICON BodyLanguage
# -----------------------------------------------
:version 1.10
:name VICON
:units
  mass 1.0
  length 0.45
  angle deg
:documentation
   .ast/.asf automatically generated from VICON data using
   VICON BodyBuilder and BodyLanguage model FoxedUp or BRILLIANT.MOD
:root
   order TX TY TZ RX RY RZ
   axis XYZ
   position 0 0 0  
   orientation 0 0 0 
:bonedata
  begin
     id 1 
     name lhipjoint
     direction 0.606768 -0.715223 0.346827 
     length 2.41543 
     axis 0 0 0  XYZ
  end
  begin
     id 2 
     name lfemur
     direction 0.34202 -0.939693 0  
     length 7.2778  
     axis 0 0 20  XYZ
    dof rx ry rz
    limits (-160.0 20.0)
           (-70.0 70.0)
           (-60.0 70.0)
  end
  begin
     id 3 
     name ltibia
     direction 0.34202 -0.939693 0   
     length 7.61811   
     axis 0 0 20   XYZ
    dof rx
    limits (-10.0 170.0)
  end
  begin
     id 4 
     name lfoot
     direction 0.0823924 -0.226371 0.97055   
     length 2.33618   
     axis -90 7.62852e-016 20   XYZ
    dof rx rz
    limits (-45.0 90.0)
           (-70.0 20.0)
  end
  begin
     id 5 
     name ltoes
     direction 1.53554e-011 -4.21934e-011 1   
     length 1.17015   
     axis -90 7.62852e-016 20   XYZ
    dof rx
    limits (-90.0 20.0)
  end
  begin
     id 6 
     name rhipjoint
     direction -0.6077 -0.714582 0.346516   
     length 2.4176  
     axis 0 0 0  XYZ 
  end
  begin
     id 7 
     name rfemur
     direction -0.34202 -0.939693 0   
     length 7.28127   
     axis 0 0 -20   XYZ
    dof rx ry rz
    limits (-160.0 20.0)
           (-70.0 70.0)
           (-70.0 60.0)
  end
  begin
     id 8 
     name rtibia
     direction -0.34202 -0.939693 0   
     length 7.77648   
     axis 0 0 -20   XYZ
    dof rx
    limits (-10.0 170.0)
 end
 begin
     id 9 
     name rfoot
     direction -0.0809463 -0.222398 0.97159   
     length 2.37533  
     axis -90 -7.62852e-016 -20   XYZ
    dof rx rz
    limits (-45.0 90.0)
           (-20.0 70.0)
  end
  begin
     id 10 
     name rtoes
     direction -1.53568e-011 -4.21714e-011 1   
     length 1.18972   
     axis -90 -7.62852e-016 -20   XYZ
    dof rx
    limits (-90.0 20.0)
  end
  begin
     id 11 
     name lowerback
     direction 0.010968 0.991932 -0.126297   
     length 2.21698   
     axis 0 0 0   XYZ
    dof rx ry rz
    limits (-20.0 45.0)
           (-30.0 30.0)
           (-30.0 30.0)
  end
  begin
     id 12 
     name upperback
     direction 0.0167007 0.997503 -0.0686276   
     length 2.22371   
     axis 0 0 0   XYZ
    dof rx ry rz
    limits (-20.0 45.0)
           (-30.0 30.0)
           (-30.0 30.0)
  end
  begin
     id 13 
     name thorax
     direction 0.0111721 0.999885 -0.0102878   
     length 2.25242   
     axis 0 0 0   XYZ
    dof rx ry rz
    limits (-20.0 45.0)
           (-30.0 30.0)
           (-30.0 30.0)
  end
  begin
     id 14 
     name lowerneck
     direction -0.0120265 0.990428 0.137508   
     length 1.57674   
     axis 0 0 0   XYZ
    dof rx ry rz
    limits (-20.0 45.0)
           (-30.0 30.0)
           (-30.0 30.0)
  end
  begin
     id 15 
     name upperneck
     direction 0.0175669 0.998907 0.0433089   
     length 1.5618   
     axis 0 0 0   XYZ
    dof rx ry rz
    limits (-20.0 45.0)
           (-30.0 30.0)
           (-30.0 30.0)
  end
  begin
     id 16
     name head
     direction 0.00754609 0.99997 0.00185367  
     length 1.60579  
     axis 0 0 0   XYZ
    dof rx ry rz
    limits (-20.0 45.0)
           (-30.0 30.0)
           (-30.0 30.0)
  end
  begin
     id 17 
     name lclavicle
     direction 0.885866 0.429166 -0.176231  
     length 3.44967  
     axis 0 0 0   XYZ
    dof ry rz
    limits (-20.0 10.0)
           (0.0 20.0)
  end
  begin
     id 18 
     name lhumerus
     direction 1 -4.48973e-011 -1.90255e-027   
     length 5.20607   
     axis 180 -30 -90   XYZ
    dof rx ry rz
    limits (-60.0 90.0)
           (-90.0 90.0)
           (-90.0 90.0)
  end
  begin
     id 19
     name lradius
     direction 1 -4.48956e-011 9.87925e-027   
     length 3.39961   
     axis 180 -30 -90   XYZ
    dof rx
    limits (-10.0 170.0)
  end
  begin
     id 20
     name lwrist
     direction 1 -4.48985e-011 1.73247e-026   
     length 1.6998   
     axis -9.60847e-015 90 90   XYZ
    dof ry
    limits (-180.0 0.0)
 end
  begin
     id 21 
     name lhand
     direction 1 -4.48798e-011 3.46119e-026   
     length 0.519693   
     axis -2.21073e-014 90 90   XYZ
    dof rx rz
    limits (-90.0 90.0)
           (-45.0 45.0)
  end
  begin
     id 22 
     name lfingers
     direction 1 -4.48938e-011 6.92797e-026   
     length 0.41899   
     axis -4.42155e-014 90 90   XYZ
    dof rx
    limits (0.0 90.0)
  end
  begin
     id 23
     name lthumb
     direction 0.707107 -6.34952e-011 0.707107   
     length 0.601588   
     axis -90 45 6.0103e-014   XYZ
    dof rx rz
    limits (-45.0 45.0)
           (-45.0 45.0)
  end
  begin
     id 24 
     name rclavicle
     direction -0.866736 0.456792 -0.200276   
     length 3.45032  
     axis 0 0 0   XYZ 
    dof ry rz
    limits (-10.0 20.0)
           (-20.0 0.0)
  end
  begin
     id 25 
     name rhumerus
     direction -1 -4.4897e-011 8.65094e-028  
     length 5.32214   
     axis 180 30 90   XYZ
    dof rx ry rz
    limits (-90.0 60.0)
           (-90.0 90.0)
           (-90.0 90.0)
  end
  begin
     id 26 
     name rradius
     direction -1 -4.48987e-011 1.08427e-026   
     length 3.51208   
     axis 180 30 90   XYZ
    dof rx
    limits (-10.0 170.0)
  end
  begin
     id 27 
     name rwrist
     direction -1 -4.48961e-011 1.73222e-026   
     length 1.75604   
     axis -9.60847e-015 -90 -90   XYZ
    dof ry
    limits (-180.0 0.0)
  end
  begin
     id 28
     name rhand
     direction -1 -4.48895e-011 3.46314e-026   
     length 0.586681   
     axis -2.21073e-014 -90 -90   XYZ
    dof rx rz
    limits (-90.0 90.0)
           (-45.0 45.0)
  end
  begin
     id 29
     name rfingers
     direction -1 -4.48968e-011 6.92916e-026   
     length 0.472997   
     axis -4.42155e-014 -90 -90   XYZ
    dof rx
    limits (0.0 90.0)
  end
  begin
     id 30
     name rthumb
     direction -0.707107 -6.34848e-011 0.707107   
     length 0.679133   
     axis -90 -45 -6.0103e-014   XYZ
    dof rx rz
    limits (-45.0 45.0)
           (-45.0 45.0)
  end
:hierarchy
  begin
    root lhipjoint rhipjoint lowerback
    lhipjoint lfemur
    lfemur ltibia
    ltibia lfoot
    lfoot ltoes
    rhipjoint rfemur
    rfemur rtibia
    rtibia rfoot
    rfoot rtoes
    lowerback upperback
    upperback thorax
    thorax lowerneck lclavicle rclavicle
    lowerneck upperneck
    upperneck head
    lclavicle lhumerus
    lhumerus lradius
    lradius lwrist
    lwrist lhand lthumb
    lhand lfingers
    rclavicle rhumerus
    rhumerus rradius
    rradius rwrist
    rwrist rhand rthumb
    rhand rfingers
  end

#!OML:ASF H:\Dans Jumps\Project 1\Capture day 1\Session 1\subject.ASF
:FULLY-SPECIFIED
:DEGREES
45
root 0.815207 17.5364 -13.8152 6.78765 -2.29462 -1.69434
lowerback -3.22245 -0.680599 0.508861
upperback 3.34507 -1.02964 1.87058
thorax 5.29545 -0.531055 1.57312
lowerneck -13.8625 1.014 -1.77623
upperneck 31.0973 2.10871 -0.510713
head 12.6062 0.647379 0.420662
rclavicle -3.18055e-015 -2.78299e-014
rhumerus -23.022 -19.398 -78.9815
rradius 26.2741
rwrist 32.1283
rhand -18.1796 -25.9527
rfingers 7.12502
rthumb 8.09701 -55.7776
lclavicle -3.18055e-015 -2.78299e-014
lhumerus -19.1164 4.72704 85.4413
lradius 18.3611
lwrist -0.947062
lhand -24.245 -3.24296
lfingers 7.12502
lthumb 2.24076 26.725
rfemur -13.0135 -2.16653 19.2418
rtibia 20.634
rfoot -13.5797 -2.62925
rtoes 10.9651
lfemur -11.3976 7.9207 -17.8474
ltibia 18.0852
lfoot -10.6083 6.83768
ltoes -9.95382
46
root 0.814217 17.5369 -13.8125 6.80137 -2.28349 -1.69434
lowerback -3.21868 -0.685319 0.512295
upperback 3.33963 -1.03605 1.87233
thorax 5.28773 -0.534112 1.57255
lowerneck -13.8401 1.00868 -1.75414
upperneck 31.1133 2.09836 -0.523341
head 12.6085 0.643591 0.410367
rclavicle -1.6201e-014 -1.15295e-014
rhumerus -23.0564 -19.4181 -78.974
rradius 26.2593
rwrist 32.1666
rhand -18.1756 -25.9443
rfingers 7.12502
rthumb 8.10086 -55.769
lclavicle -1.6201e-014 -1.15295e-014
lhumerus -19.13 4.81749 85.4271
lradius 18.2961
lwrist -1.02469
lhand -24.2468 -3.23924
lfingers 7.12502
lthumb 2.23902 26.7288
rfemur -13.0121 -2.16313 19.2458
rtibia 20.6232
rfoot -13.5831 -2.64807
rtoes 10.9475
lfemur -11.4027 7.92189 -17.8457
ltibia 18.0787
lfoot -10.6066 6.82585
ltoes -9.92548
47
root 0.813283 17.5375 -13.8098 6.81995 -2.26505 -1.68774
lowerback -3.2246 -0.692407 0.510421
upperback 3.33546 -1.04547 1.87324
thorax 5.28703 -0.538856 1.57376
lowerneck -13.8319 1.00269 -1.75137
upperneck 31.1376 2.08798 -0.520273
head 12.6169 0.63939 0.409585
rclavicle 1.51573e-014 -3.97569e-015
rhumerus -23.0881 -19.4354 -78.9657
rradius 26.2442
rwrist 32.195
rhand -18.161 -25.9478
rfingers 7.12502
rthumb 8.11496 -55.772
lclavicle 1.51573e-014 -3.97569e-015
lhumerus -19.1419 4.88998 85.4191
lradius 18.2398
lwrist -1.08805
lhand -24.2466 -3.25216
lfingers 7.12502
lthumb 2.23916 26.7158
rfemur -13.018 -2.16355 19.2426
rtibia 20.6187
rfoot -13.5902 -2.66934
rtoes 10.9376
lfemur -11.4098 7.92437 -17.8517
ltibia 18.0629
lfoot -10.6051 6.80567
ltoes -9.90942
48
root 0.812493 17.5381 -13.8069 6.84295 -2.23805 -1.67348
lowerback -3.24036 -0.701267 0.504636
upperback 3.3331 -1.05712 1.87171
thorax 5.29393 -0.544813 1.57435
lowerneck -13.8417 0.997113 -1.76642
upperneck 31.1717 2.07847 -0.500238
head 12.6326 0.635485 0.418718
rclavicle -1.2275e-014 2.5842e-014
rhumerus -23.1164 -19.4559 -78.9565
rradius 26.2259
rwrist 32.2155
rhand -18.1387 -25.955
rfingers 7.12502
rthumb 8.13649 -55.7783
lclavicle -1.2275e-014 2.5842e-014
lhumerus -19.1495 4.93778 85.4174
lradius 18.1901
lwrist -1.13411
lhand -24.2439 -3.27441
lfingers 7.12502
lthumb 2.24181 26.6936
rfemur -13.0299 -2.17478 19.231
rtibia 20.6192
rfoot -13.6006 -2.69059
rtoes 10.9261
lfemur -11.4179 7.92652 -17.8665
ltibia 18.0399
lfoot -10.6077 6.77496
ltoes -9.88583
49
root 0.811831 17.5386 -13.804 6.86961 -2.20457 -1.65364
lowerback -3.26187 -0.710988 0.496275
upperback 3.33155 -1.06982 1.86881
thorax 5.30502 -0.551361 1.57482
lowerneck -13.8629 0.992416 -1.79275
upperneck 31.2088 2.07082 -0.470853
head 12.6517 0.63222 0.433788
rclavicle -1.32689e-014 9.93923e-015
rhumerus -23.1438 -19.4737 -78.9464
rradius 26.2084
rwrist 32.2228
rhand -18.1126 -25.9726
rfingers 7.12502
rthumb 8.16162 -55.7949
lclavicle -1.32689e-014 9.93923e-015
lhumerus -19.1582 4.97557 85.4201
lradius 18.1533
lwrist -1.17577
lhand -24.2357 -3.30031
lfingers 7.12502
lthumb 2.24977 26.6676
rfemur -13.0477 -2.19548 19.2135
rtibia 20.6243
rfoot -13.6135 -2.71015
rtoes 10.9147
lfemur -11.4276 7.92856 -17.8882
ltibia 18.0109
lfoot -10.6123 6.73704
ltoes -9.86298
50
root 0.811165 17.5392 -13.8013 6.89829 -2.16522 -1.63499
lowerback -3.28532 -0.7214 0.49024
upperback 3.33047 -1.08365 1.86657
thorax 5.31772 -0.558394 1.57455
lowerneck -13.8907 0.988719 -1.82475
upperneck 31.2444 2.06515 -0.437465
head 12.6715 0.629684 0.45173
rclavicle 4.62174e-015 -3.97569e-015
rhumerus -23.1694 -19.5002 -78.9328
rradius 26.1867
rwrist 32.236
rhand -18.0867 -25.997
rfingers 7.12502
rthumb 8.18664 -55.8184
lclavicle 4.62174e-015 -3.97569e-015
lhumerus -19.1679 4.99612 85.4277
lradius 18.125
lwrist -1.20369
lhand -24.222 -3.31249
lfingers 7.12502
lthumb 2.26295 26.6552
rfemur -13.0672 -2.21906 19.1979
rtibia 20.6303
rfoot -13.6269 -2.73315
rtoes 10.9065
lfemur -11.4411 7.93289 -17.9088
ltibia 17.9822
lfoot -10.6181 6.69355
ltoes -9.86132
51
root 0.810541 17.5397 -13.7987 6.92718 -2.1209 -1.61468
lowerback -3.3092 -0.732487 0.483887
upperback 3.33132 -1.09839 1.86414
thorax 5.3327 -0.565897 1.57417
lowerneck -13.9155 0.986257 -1.84882
upperneck 31.2662 2.0617 -0.413251
head 12.6852 0.628102 0.465022
rclavicle 6.95746e-016 1.35174e-014
rhumerus -23.1931 -19.5328 -78.9171
rradius 26.1639
rwrist 32.248
rhand -18.0626 -26.026
rfingers 7.12502
rthumb 8.2099 -55.8465
lclavicle 6.95746e-016 1.35174e-014
lhumerus -19.1778 5.00665 85.4391
lradius 18.1071
lwrist -1.22057
lhand -24.195 -3.30572
lfingers 7.12502
lthumb 2.28908 26.6617
rfemur -13.0858 -2.24804 19.1807
rtibia 20.6348
rfoot -13.6402 -2.7561
rtoes 10.8934
lfemur -11.4588 7.94117 -17.9317
ltibia 17.9577
lfoot -10.6259 6.64366
ltoes -9.87529
52
root 0.809709 17.54 -13.7967 6.95621 -2.07737 -1.60642
lowerback -3.32385 -0.742011 0.486932
upperback 3.32792 -1.11155 1.86582
thorax 5.33783 -0.572317 1.57301
lowerneck -13.9169 0.982297 -1.85396
upperneck 31.2657 2.05606 -0.408821
head 12.6852 0.625634 0.466805
rclavicle -5.91384e-015 -1.11319e-014
rhumerus -23.2217 -19.5729 -78.8941
rradius 26.136
rwrist 32.2796
rhand -18.0528 -26.0461
rfingers 7.12502
rthumb 8.21933 -55.8662
lclavicle -5.91384e-015 -1.11319e-014
lhumerus -19.2 5.01411 85.4514
lradius 18.0969
lwrist -1.2325
lhand -24.1687 -3.26766
lfingers 7.12502
lthumb 2.31439 26.6995
rfemur -13.1044 -2.26207 19.1773
rtibia 20.6358
rfoot -13.6484 -2.79018
rtoes 10.8784
lfemur -11.4832 7.95209 -17.9406
ltibia 17.94
lfoot -10.6313 6.59497
ltoes -9.90862
